<svg width="13" height="10" viewBox="0 0 13 10" fill="none" xmlns="http://www.w3.org/2000/svg">
<path d="M11.5 0H1.5C0.8125 0 0.25625 0.5625 0.25625 1.25L0.25 8.75C0.25 9.4375 0.8125 10 1.5 10H11.5C12.1875 10 12.75 9.4375 12.75 8.75V1.25C12.75 0.5625 12.1875 0 11.5 0ZM11.25 2.65625L6.83125 5.41875C6.63125 5.54375 6.36875 5.54375 6.16875 5.41875L1.75 2.65625C1.68733 2.62107 1.63245 2.57354 1.58868 2.51653C1.54491 2.45953 1.51316 2.39424 1.49536 2.32461C1.47756 2.25498 1.47406 2.18246 1.4851 2.11144C1.49613 2.04042 1.52146 1.97238 1.55955 1.91144C1.59764 1.85049 1.6477 1.79791 1.7067 1.75687C1.7657 1.71583 1.83242 1.68719 1.90281 1.67269C1.9732 1.65818 2.0458 1.6581 2.11622 1.67247C2.18664 1.68683 2.25341 1.71533 2.3125 1.75625L6.5 4.375L10.6875 1.75625C10.7466 1.71533 10.8134 1.68683 10.8838 1.67247C10.9542 1.6581 11.0268 1.65818 11.0972 1.67269C11.1676 1.68719 11.2343 1.71583 11.2933 1.75687C11.3523 1.79791 11.4024 1.85049 11.4404 1.91144C11.4785 1.97238 11.5039 2.04042 11.5149 2.11144C11.5259 2.18246 11.5224 2.25498 11.5046 2.32461C11.4868 2.39424 11.4551 2.45953 11.4113 2.51653C11.3676 2.57354 11.3127 2.62107 11.25 2.65625Z" fill="#F24E1E"/>
</svg>
