<svg width="13" height="13" viewBox="0 0 13 13" fill="none" xmlns="http://www.w3.org/2000/svg">
<path d="M0.899338 3.64279H12.2143M2.21434 0.785645H10.7858C11.1646 0.785645 11.528 0.936154 11.7959 1.20406C12.0638 1.47197 12.2143 1.83534 12.2143 2.21422V10.7785C12.2143 11.1574 12.0638 11.5207 11.7959 11.7887C11.528 12.0566 11.1646 12.2071 10.7858 12.2071H2.21434C1.83546 12.2071 1.47209 12.0566 1.20419 11.7887C0.936276 11.5207 0.785767 11.1574 0.785767 10.7785V2.21422C0.785767 1.83534 0.936276 1.47197 1.20419 1.20406C1.47209 0.936154 1.83546 0.785645 2.21434 0.785645V0.785645Z" stroke="#736556" stroke-width="0.952381" stroke-linecap="round" stroke-linejoin="round"/>
<path fill-rule="evenodd" clip-rule="evenodd" d="M3.86868 8.39632V7.62561H4.49725C4.97439 7.62561 5.29868 7.34347 5.29868 6.93132C5.29868 6.5549 5.00225 6.26918 4.51082 6.26918C4.00153 6.26918 3.68796 6.53061 3.65296 6.98061H2.67868C2.7151 6.05275 3.42939 5.42847 4.56296 5.42847C5.67939 5.42847 6.3001 6.04561 6.29653 6.78204C6.29296 7.39204 5.90939 7.79347 5.36868 7.92561V7.99204C6.06939 8.09275 6.4951 8.53918 6.4951 9.21275C6.4951 10.0949 5.6651 10.7199 4.52796 10.7199C3.39082 10.7199 2.61653 10.0978 2.57153 9.14561H3.57939C3.61082 9.57132 3.97368 9.84347 4.51439 9.84347C5.04796 9.84347 5.42153 9.55347 5.42153 9.11775C5.42153 8.67132 5.07225 8.39632 4.50725 8.39632H3.86868ZM8.65439 10.5906V6.58275H8.59225L7.35725 7.43418V6.45418L8.65796 5.55775H9.70796V10.5906H8.65439Z" fill="#736556"/>
</svg>
