<svg width="35" height="35" viewBox="0 0 35 35" fill="none" xmlns="http://www.w3.org/2000/svg">
<circle cx="17.5" cy="17.5" r="17.5" fill="url(#paint0_linear_201_35)"/>
<g clip-path="url(#clip0_201_35)">
<path d="M26 21.6364C26 21.8409 25.9621 22.108 25.8864 22.4375C25.8106 22.767 25.7311 23.0265 25.6477 23.2159C25.4886 23.5947 25.0265 23.9962 24.2614 24.4205C23.5492 24.8068 22.8447 25 22.1477 25C21.9432 25 21.7424 24.9867 21.5455 24.9602C21.3485 24.9337 21.1307 24.8864 20.892 24.8182C20.6534 24.75 20.4754 24.6951 20.358 24.6534C20.2405 24.6117 20.0303 24.5341 19.7273 24.4205C19.4242 24.3068 19.2386 24.2386 19.1705 24.2159C18.428 23.9508 17.7652 23.6364 17.1818 23.2727C16.2197 22.6742 15.2197 21.8561 14.1818 20.8182C13.1439 19.7803 12.3258 18.7803 11.7273 17.8182C11.3636 17.2348 11.0492 16.572 10.7841 15.8295C10.7614 15.7614 10.6932 15.5758 10.5795 15.2727C10.4659 14.9697 10.3883 14.7595 10.3466 14.642C10.3049 14.5246 10.25 14.3466 10.1818 14.108C10.1136 13.8693 10.0663 13.6515 10.0398 13.4545C10.0133 13.2576 10 13.0568 10 12.8523C10 12.1553 10.1932 11.4508 10.5795 10.7386C11.0038 9.97348 11.4053 9.51136 11.7841 9.35227C11.9735 9.26894 12.233 9.18939 12.5625 9.11364C12.892 9.03788 13.1591 9 13.3636 9C13.4697 9 13.5492 9.01136 13.6023 9.03409C13.7386 9.07955 13.9394 9.36742 14.2045 9.89773C14.2879 10.0417 14.4015 10.2462 14.5455 10.5114C14.6894 10.7765 14.822 11.017 14.9432 11.233C15.0644 11.4489 15.1818 11.6515 15.2955 11.8409C15.3182 11.8712 15.3845 11.9659 15.4943 12.125C15.6042 12.2841 15.6856 12.4186 15.7386 12.5284C15.7917 12.6383 15.8182 12.7462 15.8182 12.8523C15.8182 13.0038 15.7102 13.1932 15.4943 13.4205C15.2784 13.6477 15.0436 13.8561 14.7898 14.0455C14.536 14.2348 14.3011 14.4356 14.0852 14.6477C13.8693 14.8598 13.7614 15.0341 13.7614 15.1705C13.7614 15.2386 13.7803 15.3239 13.8182 15.4261C13.8561 15.5284 13.8883 15.6061 13.9148 15.6591C13.9413 15.7121 13.9943 15.803 14.0739 15.9318C14.1534 16.0606 14.197 16.1326 14.2045 16.1477C14.7803 17.1856 15.4394 18.0758 16.1818 18.8182C16.9242 19.5606 17.8144 20.2197 18.8523 20.7955C18.8674 20.803 18.9394 20.8466 19.0682 20.9261C19.197 21.0057 19.2879 21.0587 19.3409 21.0852C19.3939 21.1117 19.4716 21.1439 19.5739 21.1818C19.6761 21.2197 19.7614 21.2386 19.8295 21.2386C19.9659 21.2386 20.1402 21.1307 20.3523 20.9148C20.5644 20.6989 20.7652 20.464 20.9545 20.2102C21.1439 19.9564 21.3523 19.7216 21.5795 19.5057C21.8068 19.2898 21.9962 19.1818 22.1477 19.1818C22.2538 19.1818 22.3617 19.2083 22.4716 19.2614C22.5814 19.3144 22.7159 19.3958 22.875 19.5057C23.0341 19.6155 23.1288 19.6818 23.1591 19.7045C23.3485 19.8182 23.5511 19.9356 23.767 20.0568C23.983 20.178 24.2235 20.3106 24.4886 20.4545C24.7538 20.5985 24.9583 20.7121 25.1023 20.7955C25.6326 21.0606 25.9205 21.2614 25.9659 21.3977C25.9886 21.4508 26 21.5303 26 21.6364Z" fill="white"/>
</g>
<defs>
<linearGradient id="paint0_linear_201_35" x1="0.72314" y1="16.5" x2="35.0006" y2="16.5418" gradientUnits="userSpaceOnUse">
<stop stop-color="#FF6B00"/>
<stop offset="1" stop-color="#FFA740"/>
</linearGradient>
<clipPath id="clip0_201_35">
<rect width="16" height="16" fill="white" transform="translate(10 9)"/>
</clipPath>
</defs>
</svg>
