<svg width="8" height="5" viewBox="0 0 8 5" fill="none" xmlns="http://www.w3.org/2000/svg">
<path d="M3.52932 4.4625L0.531821 1.03625C0.178071 0.633125 0.465571 2.29816e-07 1.00245 2.29816e-07H6.99745C7.1176 -0.000102787 7.23523 0.0344299 7.33627 0.0994631C7.4373 0.164496 7.51744 0.257273 7.5671 0.366683C7.61676 0.476093 7.63383 0.597499 7.61627 0.716361C7.5987 0.835223 7.54725 0.946503 7.46807 1.03688L4.47057 4.46188C4.41191 4.52901 4.33956 4.58281 4.25839 4.61968C4.17722 4.65654 4.0891 4.67561 3.99995 4.67561C3.91079 4.67561 3.82267 4.65654 3.7415 4.61968C3.66033 4.58281 3.58798 4.52901 3.52932 4.46188V4.4625Z" fill="white"/>
</svg>
