<svg width="43" height="43" viewBox="0 0 43 43" fill="none" xmlns="http://www.w3.org/2000/svg">
<path fill-rule="evenodd" clip-rule="evenodd" d="M21.5 0.875C10.1094 0.875 0.875 10.1094 0.875 21.5C0.875 32.8906 10.1094 42.125 21.5 42.125C32.8906 42.125 42.125 32.8906 42.125 21.5C42.125 10.1094 32.8906 0.875 21.5 0.875ZM15.3256 25.6381C14.972 25.9797 14.4984 26.1687 14.0067 26.1644C13.5151 26.1601 13.0449 25.9629 12.6972 25.6153C12.3496 25.2676 12.1524 24.7974 12.1481 24.3057C12.1438 23.8141 12.3328 23.3405 12.6744 22.9869L20.1744 15.4869C20.526 15.1354 21.0028 14.9379 21.5 14.9379C21.9972 14.9379 22.474 15.1354 22.8256 15.4869L30.3256 22.9869C30.6672 23.3405 30.8562 23.8141 30.8519 24.3057C30.8476 24.7974 30.6504 25.2676 30.3028 25.6153C29.9551 25.9629 29.4849 26.1601 28.9932 26.1644C28.5016 26.1687 28.028 25.9797 27.6744 25.6381L21.5 19.4637L15.3256 25.6381Z" fill="url(#paint0_linear_201_323)"/>
<defs>
<linearGradient id="paint0_linear_201_323" x1="1.72727" y1="20.3214" x2="42.1257" y2="20.3707" gradientUnits="userSpaceOnUse">
<stop stop-color="#FF6B00"/>
<stop offset="1" stop-color="#FFA740"/>
</linearGradient>
</defs>
</svg>
